<?xml version="1.0" encoding="utf-8"?>
<!-- Generator: Adobe Illustrator 23.1.1, SVG Export Plug-In . SVG Version: 6.00 Build 0)  -->
<svg version="1.1" xmlns="http://www.w3.org/2000/svg" xmlns:xlink="http://www.w3.org/1999/xlink" x="0px" y="0px"
	 viewBox="0 0 560 288" style="enable-background:new 0 0 560 288;" xml:space="preserve">
<style type="text/css">
	.st0{display:none;fill:#FFFFFF;}
</style>
<g id="Layer_1">
	<g>
		<ellipse class="st0" cx="280" cy="143.5" rx="401.92" ry="204.35"/>
		<path d="M546.16,222.98c0.67,9.08-6.97,17.76-16.61,19.98c-5.38,1.24-10.31,0.62-15.11-1.98c-4.99-2.7-9.27-6.2-12.63-10.8
			c-2.86-3.91-4.35-8.2-4-13.09c0.42-5.74,1.13-11.38,4.49-16.3c3.27-4.8,7.79-7.38,13.58-7.66
			C533.51,192.28,546.04,204.66,546.16,222.98z"/>
		<path d="M125.45,61.55c0.76,9.94-7.05,17.75-14.97,20.14c-6.48,1.96-12.44,1.2-18.18-2.29c-4.2-2.55-7.87-5.63-10.86-9.55
			c-3.4-4.45-5.04-9.38-4.21-14.99c0.42-2.85,0.65-5.76,1.43-8.51c2.9-10.22,10.87-15.22,21.4-14.02
			c16.59,1.89,24.23,14.66,25.23,27.01C125.36,60.08,125.4,60.81,125.45,61.55z"/>
		<path d="M359.32,61.99c-0.31,1.84-0.49,4.38-1.19,6.77c-2.24,7.68-7.68,11.74-15.4,12.9c-15.89,2.39-28.6-6.72-32.7-22.86
			c-2.35-9.25,2.64-17.54,8.11-21.36c6.02-4.2,12.47-5.78,19.68-3.41c4.78,1.57,9.18,3.74,13.09,6.93
			c4.44,3.63,7.19,8.16,7.75,13.93C358.88,57.03,359.06,59.17,359.32,61.99z"/>
		<path d="M537.45,156.59c-5.04-4.88-10.03-9.8-15.04-14.7c-0.33-0.32-0.72-0.58-1.16-0.93c-0.2,0.27-0.3,0.42-0.42,0.57
			c-6.36,8.29-14.92,11.21-25.05,10.25c-0.9-0.09-1.79-0.39-2.65-0.7c-1.06-0.38-1.35-0.96-1-2.25c1.67-6.17,2.52-12.45,0.97-18.77
			c-3.23-13.18-10.54-23.81-20.8-32.51c-9.39-7.96-20.06-10.63-32-7.39c-16.45,4.46-31.08,12.39-43.05,24.54
			c-11.76,11.95-21.06,25.76-28.19,40.98c-0.43,0.92-0.96,1.9-1.69,2.58c-8.43,7.82-16.78,15.72-25.41,23.32
			c-8.9,7.85-18.22,15.2-28.63,21.02c-0.88,0.49-1.8,0.92-2.84,1.45c-0.2-0.86-0.36-1.44-0.46-2.04c-0.9-5.48-0.45-10.92,0.62-16.31
			c2.44-12.37,6.82-24.09,12.22-35.43c4.28-9,8.91-17.8,15.1-25.69c0.36-0.46,0.41-1.38,0.24-1.98c-0.7-2.42-1.51-4.8-2.34-7.18
			c-3.26-9.39-8.44-17.43-16.48-23.48c-3.83-2.88-7.56-3.26-11.64-0.8c-1.77,1.07-3.53,2.33-4.89,3.86
			c-3.17,3.58-6.32,7.23-9.07,11.13c-8.25,11.73-14.22,24.66-19.52,37.93c-0.33,0.83-0.73,1.83-1.41,2.28
			c-2.33,1.56-4.68,3.24-7.25,4.28c-4.61,1.87-9.53,1.58-14.37,1.12c-1-0.09-1.93-0.83-2.82-1.23c1.75-6.36,2.87-12.48,1.64-18.7
			c-2.5-12.71-9.28-23.02-18.51-31.82c-10.22-9.75-22.14-13.49-35.92-9.32c-18.83,5.69-35.14,15.41-47.74,30.81
			c-10.41,12.72-19.44,26.27-25.23,41.78c-0.26,0.71-0.84,1.35-1.41,1.88c-4.58,4.28-9.14,8.59-13.82,12.77
			c-9.91,8.84-20.03,17.44-31.35,24.49c-2.16,1.35-4.42,2.53-6.79,3.88c-0.21-0.9-0.38-1.49-0.48-2.09
			c-0.91-5.42-0.55-10.82,0.56-16.13c4.34-20.71,12.95-39.62,24.37-57.32c1.12-1.74,3.1-3.29,3.34-5.11
			c0.26-1.93-1.07-4.08-1.74-6.12c-3.3-10.17-8.54-19.03-17.28-25.52c-3.7-2.75-7.56-3.19-11.49-0.75
			c-1.91,1.19-3.81,2.58-5.29,4.25c-3.13,3.54-6.27,7.13-8.89,11.04c-13,19.38-21.6,40.74-27.8,63.12
			c-3.05,11.01-5.11,22.19-3.69,33.69c0.95,7.69,3.43,14.47,10.54,18.89c12.01,7.46,24.66,13.42,38.08,17.88
			c7.69,2.55,14.6,1.76,21.01-3.2c0.29-0.23,0.61-0.42,0.91-0.63c6.69-4.67,12.53-10.31,18.1-16.22c4.42-4.69,8.62-9.59,13.03-14.51
			c0.88,0.78,1.71,1.51,2.54,2.24c10.19,9,20.57,17.78,31.98,25.21c5.09,3.31,10.35,6.39,16.27,8.08c3.53,1.01,6.81,0.86,10.03-1.25
			c5.24-3.43,10.72-6.49,15.95-9.94c17.79-11.73,31.79-26.8,40.43-46.51c0.41-0.94,0.85-1.87,1.28-2.81
			c7.67,3.61,9.75,3.86,21.32,2.6c0,0.36,0,0.72,0,1.07c-0.09,5.7-0.63,11.44-0.16,17.1c0.63,7.64,3.34,14.34,10.39,18.73
			c11.9,7.4,24.44,13.28,37.71,17.79c8.19,2.78,15.29,1.6,22.18-3.52c7.34-5.47,13.93-11.7,20.13-18.37
			c3.8-4.1,7.41-8.38,11.09-12.57c11.74,10.51,23.64,20.91,36.92,29.54c5.29,3.44,10.75,6.71,17.02,8.18
			c3.02,0.71,5.89,0.54,8.66-1.24c5.37-3.46,10.95-6.6,16.28-10.11c18.3-12.04,32.53-27.61,41.16-47.99
			c0.2-0.48,0.48-0.92,0.72-1.38c5.16,2.52,8.07,3.3,12.47,3.35c16.72,0.21,34.4-11.29,41.07-26.64
			C538.52,157.98,538.25,157.36,537.45,156.59z M208.56,155.52c-6.29,12.54-14.83,23.3-25.77,32.08c-3.2,2.57-6.59,4.94-10.11,7.04
			c-1.77,1.05-3.99,1.6-6.06,1.79c-2.5,0.23-4.1-1.63-4.1-4.16c0.02-8.1,2.5-15.59,5.75-22.87c5.63-12.62,13.91-23.41,23.38-33.34
			c2.73-2.87,6.13-3.99,10.08-2.57c1.17,0.42,1.81,1.09,1.66,2.46c-0.13,1.15-0.03,2.33-0.03,3.99c-0.22,4.96,0.97,9.88,5.22,13.71
			C208.88,153.94,208.82,155,208.56,155.52z M428.12,188.63c-2.79,2.19-5.76,4.2-8.81,6.01c-1.59,0.94-3.5,1.57-5.34,1.79
			c-3.21,0.39-4.95-1.47-4.87-4.71c0.14-6.35,1.76-12.38,4.04-18.26c5.6-14.4,14.68-26.48,25.22-37.55
			c2.94-3.09,7.04-3.88,10.26-2.23c0.6,0.31,1.1,1.18,1.25,1.88c0.22,1,0.13,2.08,0.08,3.12c-0.32,5.98,0.88,11.39,5.9,15.46
			C449.17,167.91,439.95,179.34,428.12,188.63z"/>
	</g>
</g>
<g id="Layer_2">
</g>
</svg>
